<svg width="200" height="200" viewBox="0 0 200 200" fill="none" xmlns="http://www.w3.org/2000/svg">
  <path d="M100 180C144.183 180 180 144.183 180 100C180 55.8172 144.183 20 100 20C55.8172 20 20 55.8172 20 100C20 144.183 55.8172 180 100 180Z" fill="#F9F9F9" stroke="#E5E7EB" stroke-width="2"/>
  <path d="M70 80C70 74.4772 74.4772 70 80 70H120C125.523 70 130 74.4772 130 80V120C130 125.523 125.523 130 120 130H80C74.4772 130 70 125.523 70 120V80Z" fill="#FDE8E8"/>
  <path d="M85 95C85 92.2386 87.2386 90 90 90H110C112.761 90 115 92.2386 115 95V115C115 117.761 112.761 120 110 120H90C87.2386 120 85 117.761 85 115V95Z" fill="#FECACA"/>
  <path d="M100 65V75M100 125V135M65 100H75M125 100H135" stroke="#F87171" stroke-width="4" stroke-linecap="round"/>
  <path d="M60 60L70 70M130 130L140 140M60 140L70 130M130 70L140 60" stroke="#F87171" stroke-width="4" stroke-linecap="round"/>
  <path d="M100 50C100 47.2386 102.239 45 105 45H105C107.761 45 110 47.2386 110 50V50C110 52.7614 107.761 55 105 55H105C102.239 55 100 52.7614 100 50V50Z" fill="#F87171"/>
  <path d="M90 50C90 47.2386 92.2386 45 95 45H95C97.7614 45 100 47.2386 100 50V50C100 52.7614 97.7614 55 95 55H95C92.2386 55 90 52.7614 90 50V50Z" fill="#F87171"/>
</svg> 